/* XPM */
static char *ec2b0c4837104868b42058d0a48161ccRIeBgtWoofIJD8t4[] = {
/* columns rows colors chars-per-pixel */
"32 32 222 2 ",
"   c None",
".  c #A95316",
"X  c #934C2F",
"o  c #955338",
"O  c #96553A",
"+  c #97583F",
"@  c #B46028",
"#  c #B2612F",
"$  c #B8642E",
"%  c #AD6136",
"&  c #AE6137",
"*  c #AE6237",
"=  c #AB643F",
"-  c #B76531",
";  c #B76633",
":  c #B76635",
">  c #B1673F",
",  c #B2673E",
"<  c #B86B3F",
"1  c #975840",
"2  c #975A43",
"3  c #985940",
"4  c #9F5E49",
"5  c #9C5E4A",
"6  c #A35B48",
"7  c #A05D49",
"8  c #A35E49",
"9  c #A55F49",
"0  c #97604B",
"q  c #98604C",
"w  c #99604C",
"e  c #99614C",
"r  c #9A614C",
"t  c #9A624C",
"y  c #9B624C",
"u  c #9B634C",
"i  c #9C624C",
"p  c #9D634C",
"a  c #9F624C",
"s  c #9E644D",
"d  c #9F644D",
"f  c #976452",
"g  c #996656",
"h  c #986D53",
"j  c #9A6958",
"k  c #9B6A59",
"l  c #9D6D5D",
"z  c #997355",
"x  c #A16247",
"c  c #A2604A",
"v  c #A1624B",
"b  c #A3634B",
"n  c #A7604A",
"m  c #A1644C",
"M  c #A0654D",
"N  c #A1654D",
"B  c #A2654D",
"V  c #A3654D",
"C  c #A0664D",
"Z  c #A1664D",
"A  c #A2664D",
"S  c #A3664D",
"D  c #A2674E",
"F  c #A3674E",
"G  c #A4664D",
"H  c #A4674D",
"J  c #A6664D",
"K  c #A7674E",
"L  c #AB614A",
"P  c #AB644A",
"I  c #A8634C",
"U  c #A8674D",
"Y  c #A4684E",
"T  c #A5684E",
"R  c #A5694E",
"E  c #A6694E",
"W  c #A9684A",
"Q  c #A8684E",
"!  c #A9684E",
"~  c #AF6A4D",
"^  c #AF694E",
"/  c #AD6A4E",
"(  c #AF6A4E",
")  c #AF6A4F",
"_  c #AF6B4F",
"`  c #B36A43",
"'  c #B16B46",
"]  c #B56D46",
"[  c #BC6F42",
"{  c #B96E45",
"}  c #B0634A",
"|  c #B1644B",
" . c #B2644B",
".. c #B4654B",
"X. c #B7664C",
"o. c #B9674C",
"O. c #BA674C",
"+. c #B36D48",
"@. c #B26D4A",
"#. c #B66F49",
"$. c #B46E4A",
"%. c #B66F4A",
"&. c #B0694E",
"*. c #B06A4E",
"=. c #B06A4F",
"-. c #B16A4F",
";. c #B06B4F",
":. c #B06C4E",
">. c #B26C4F",
",. c #BD7043",
"<. c #B7714E",
"1. c #B8714C",
"2. c #A16952",
"3. c #A26B54",
"4. c #A46B54",
"5. c #A46C55",
"6. c #AB6D50",
"7. c #AC6D50",
"8. c #AD6E50",
"9. c #AF6F50",
"0. c #B06F50",
"q. c #B66D50",
"w. c #B76D50",
"e. c #B86E50",
"r. c #B96E50",
"t. c #BA6F50",
"y. c #BB6F50",
"u. c #BC6F50",
"i. c #AC7157",
"p. c #A4705B",
"a. c #A3705D",
"s. c #B07050",
"d. c #B17050",
"f. c #B27050",
"g. c #B37150",
"h. c #B27151",
"j. c #B67351",
"k. c #B87251",
"l. c #BD7050",
"z. c #BF7051",
"x. c #BB7652",
"c. c #BC7753",
"v. c #BD7753",
"b. c #BE7A56",
"n. c #9F7161",
"m. c #A37666",
"M. c #A47664",
"N. c #A87B68",
"B. c #AA7E6B",
"V. c #AA7E6C",
"C. c #AA7F6C",
"Z. c #B47C63",
"A. c #B67F65",
"S. c #C3784D",
"D. c #CF7E4C",
"F. c #C07151",
"G. c #C17151",
"H. c #C27151",
"J. c #C37251",
"K. c #C47251",
"L. c #C57352",
"P. c #C67352",
"I. c #C77452",
"U. c #C87452",
"Y. c #C97452",
"T. c #CA7552",
"R. c #C27950",
"E. c #C17A54",
"W. c #C27B54",
"Q. c #C37B54",
"!. c #C37C54",
"~. c #C27C56",
"^. c #C47C54",
"/. c #C47D55",
"(. c #C57E55",
"). c #C67E55",
"_. c #C77E55",
"`. c #C67E56",
"'. c #C87F55",
"]. c #C87F56",
"[. c #B48169",
"{. c #BD8D76",
"}. c #B38E7D",
"|. c #BE927C",
" X c #D1804E",
".X c #CE8050",
"XX c #CB8054",
"oX c #C88056",
"OX c #C98056",
"+X c #C98057",
"@X c #CB8156",
"#X c #CD8257",
"$X c #CF8357",
"%X c #D08252",
"&X c #D18355",
"*X c #D38455",
"=X c #D18456",
"-X c #D08457",
";X c #D18457",
":X c #D18557",
">X c #D28557",
",X c #D48555",
"<X c #D58655",
"1X c #D48656",
"2X c #D28558",
"3X c #D28658",
"4X c #D38658",
"5X c #D28659",
"6X c #D38759",
"7X c #D48658",
"8X c #D48758",
"9X c #D58859",
"0X c #D68858",
"qX c #D68859",
"wX c #D78859",
"eX c #D68959",
"rX c #D78959",
"tX c #D5885A",
"yX c #D6895A",
"uX c #D7895A",
"iX c #D88959",
"pX c #D8895A",
/* pixels */
"                                                                ",
"                      o + i i i i i i O 3                       ",
"                      ' $.j.j.j.j.j.j.+.+.                      ",
"              2.2 5.~.7X7X4X4X4X4X4X4X7X4Xb.3.2 p.              ",
"            {.< ; ,.%X0X`.x.c.c.c.c.x.@XpX.X[ ; { |.            ",
"          x : 0X0X4X4X@X8.w i i i w w d.$X4X4X0X7X# 4.          ",
"        A.S. X0X`.0.8.8.A w i i w w i A 6.8.d.'.pXD.R.[.        ",
"      W $ 0X0X'.8.w 0 i K ! A A ! ! A A K i w d.@X0X<X@ i.      ",
"  }.d.@X<X0XW.E s i w K l.H.K K H.u.A ) H.q.A w E `.0X<X@XZ.N.  ",
"  a.. =X4XW.8.w U >.K K H.P.! ! P.H.A ;.Y.y.A A ) k.W.4X&X= X   ",
"  B.* =X`.A w A y.Y.) A l.P.! ! P.l.A ) I.y.A q.Y.;.A `.=Xd.i   ",
"  B.* =X~.s 0 A u.Y.;.A l.P.! ! P.l.A ) I.y.A y.Y.) A `.=Xd.i   ",
"  B.* =X`.A w A y.I.) A l.P.! ! P.l.A ) I.y.A q.Y.;.A `.=Xd.i   ",
"  B.* =X`.A w A y.I.) A l.P.! ! P.l.A ) I.y.A q.Y.;.A `.=Xd.i   ",
"  B.* =X`.A w A y.I.) A l.P.! ! H.l.A ) I.y.A q.Y.;.A `.=Xd.i   ",
"  B.* =X`.A w A y.I.) A l.P.! ! H.l.A ) I.y.A q.Y.;.A `.=Xd.i   ",
"  B.* =X`.A w A y.I.) A l.P.! ! P.l.A ) I.y.A q.Y.;.A `.=Xd.i   ",
"  B.* =X`.A w A y.I.) A l.P.! ! P.l.A ) I.y.A q.Y.;.A `.=Xd.i   ",
"  B.* =X`.A w A y.I.) A l.P.! ! P.l.A ) I.y.A q.Y.;.A `.=Xd.i   ",
"  V.* =X`.A w A y.I.) A l.P.! ! P.l.A ) I.y.A q.Y.;.A `.=Xd.i   ",
"  V.* =X`.A w A y.I.) A l.P.! ! P.l.A ) I.q.A q.Y.;.A `.=Xd.i   ",
"  M.> =X`.A w A y.I.) A l.P.! ! P.l.A ) I.q.A q.Y.;.A `.=Xd.i   ",
"  k $.=X~.A w A y.I.) A l.P.! ! P.l.A ) I.y.A q.Y.;.A `.=Xd.i   ",
"  n.` =X~.A w A y.I.) A l.P.! ! P.l.A ) I.y.s q.Y.;.A `.=Xd.i   ",
"  m.> =X`.A w A y.I.) A l.P.! ! P.l.A ) I.y.A q.Y.;.A `.=Xd.i   ",
"  l ] =X`.A w A y.I.) A l.P.! ! P.l.A ) I.y.A q.Y.) A `.=Xd.i   ",
"  k $.=X`.A w A y.Y.) A H.P.! ! P.H.A ) Y.y.A q.Y.;.A `.=Xd.i   ",
"  k $.=X`.A w A y.Y.) A H.P.! ! P.H.A ) Y.y.A q.Y.;.A `.=Xd.i   ",
"  g 1.7X`.A 5 7  .o.L 9 ..X.n n X...9 L o. .7 } o.I E @X4Xd.w   ",
"  f <.=XW.A                                         E `.$X0.i   ",
"  h P d.) A                                         v >.d.E s   ",
"  z 6 i 7 v                                         v 5 i s A   "
};
