/* XPM */
static char *dc67839b53394a22ae6db4bdaf83a72d2Ip7INHGNxf0JDFJ[] = {
/* columns rows colors chars-per-pixel */
"32 32 225 2 ",
"   c #A95316",
".  c #934C2F",
"X  c #955338",
"o  c #96553A",
"O  c #97583F",
"+  c #B46028",
"@  c #B2612F",
"#  c #B8642E",
"$  c #AD6136",
"%  c #AE6137",
"&  c #AE6237",
"*  c #AB643F",
"=  c #B76531",
"-  c #B76633",
";  c #B76635",
":  c #B1673F",
">  c #B2673E",
",  c #B86B3F",
"<  c #975840",
"1  c #975A43",
"2  c #985940",
"3  c #9F5E49",
"4  c #9C5E4A",
"5  c #A35B48",
"6  c #A05D49",
"7  c #A35E49",
"8  c #A55F49",
"9  c #97604B",
"0  c #98604C",
"q  c #99604C",
"w  c #99614C",
"e  c #9A614C",
"r  c #9A624C",
"t  c #9B624C",
"y  c #9B634C",
"u  c #9C624C",
"i  c #9D634C",
"p  c #9F624C",
"a  c #9E644D",
"s  c #9F644D",
"d  c #976452",
"f  c #996656",
"g  c #986D53",
"h  c #9A6958",
"j  c #9B6A59",
"k  c #9D6D5D",
"l  c #997355",
"z  c #A16247",
"x  c #A2604A",
"c  c #A1624B",
"v  c #A3634B",
"b  c #A7604A",
"n  c #A1644C",
"m  c #A0654D",
"M  c #A1654D",
"N  c #A2654D",
"B  c #A3654D",
"V  c #A0664D",
"C  c #A1664D",
"Z  c #A2664D",
"A  c #A3664D",
"S  c #A2674E",
"D  c #A3674E",
"F  c #A4664D",
"G  c #A4674D",
"H  c #A6664D",
"J  c #A7674E",
"K  c #AB614A",
"L  c #AB644A",
"P  c #A8634C",
"I  c #A8674D",
"U  c #A4684E",
"Y  c #A5684E",
"T  c #A5694E",
"R  c #A6694E",
"E  c #A9684A",
"W  c #A8684E",
"Q  c #A9684E",
"!  c #AF6A4D",
"~  c #AF694E",
"^  c #AD6A4E",
"/  c #AF6A4E",
"(  c #AF6A4F",
")  c #AF6B4F",
"_  c #B36A43",
"`  c #B16B46",
"'  c #B56D46",
"]  c #BC6F42",
"[  c #B96E45",
"{  c #B0634A",
"}  c #B1644B",
"|  c #B2644B",
" . c #B4654B",
".. c #B7664C",
"X. c #B9674C",
"o. c #BA674C",
"O. c #B36D48",
"+. c #B26D4A",
"@. c #B66F49",
"#. c #B46E4A",
"$. c #B66F4A",
"%. c #B0694E",
"&. c #B06A4E",
"*. c #B06A4F",
"=. c #B16A4F",
"-. c #B06B4F",
";. c #B06C4E",
":. c #B26C4F",
">. c #BD7043",
",. c #B7714E",
"<. c #B8714C",
"1. c #A16952",
"2. c #A26B54",
"3. c #A46B54",
"4. c #A46C55",
"5. c #AB6D50",
"6. c #AC6D50",
"7. c #AD6E50",
"8. c #AF6F50",
"9. c #B06F50",
"0. c #B66D50",
"q. c #B76D50",
"w. c #B86E50",
"e. c #B96E50",
"r. c #BA6F50",
"t. c #BB6F50",
"y. c #BC6F50",
"u. c #AC7157",
"i. c #A4705B",
"p. c #A3705D",
"a. c #B07050",
"s. c #B17050",
"d. c #B27050",
"f. c #B37150",
"g. c #B27151",
"h. c #B67351",
"j. c #B87251",
"k. c #BD7050",
"l. c #BF7051",
"z. c #BB7652",
"x. c #BC7753",
"c. c #BD7753",
"v. c #BE7A56",
"b. c #9F7161",
"n. c #A37666",
"m. c #A47664",
"M. c #A87B68",
"N. c #AA7E6B",
"B. c #AA7E6C",
"V. c #AA7F6C",
"C. c #B47C63",
"Z. c #B67F65",
"A. c #C3784D",
"S. c #CF7E4C",
"D. c #C07151",
"F. c #C17151",
"G. c #C27151",
"H. c #C37251",
"J. c #C47251",
"K. c #C57352",
"L. c #C67352",
"P. c #C77452",
"I. c #C87452",
"U. c #C97452",
"Y. c #CA7552",
"T. c #C27950",
"R. c #C17A54",
"E. c #C27B54",
"W. c #C37B54",
"Q. c #C37C54",
"!. c #C27C56",
"~. c #C47C54",
"^. c #C47D55",
"/. c #C57E55",
"(. c #C67E55",
"). c #C77E55",
"_. c #C67E56",
"`. c #C87F55",
"'. c #C87F56",
"]. c #65AE4C",
"[. c #4FAF7B",
"{. c #74C857",
"}. c #B48169",
"|. c #BD8D76",
" X c #B38E7D",
".X c #BE927C",
"XX c #D1804E",
"oX c #CE8050",
"OX c #CB8054",
"+X c #C88056",
"@X c #C98056",
"#X c #C98057",
"$X c #CB8156",
"%X c #CD8257",
"&X c #CF8357",
"*X c #D08252",
"=X c #D18355",
"-X c #D38455",
";X c #D18456",
":X c #D08457",
">X c #D18457",
",X c #D18557",
"<X c #D28557",
"1X c #D48555",
"2X c #D58655",
"3X c #D48656",
"4X c #D28558",
"5X c #D28658",
"6X c #D38658",
"7X c #D28659",
"8X c #D38759",
"9X c #D48658",
"0X c #D48758",
"qX c #D58859",
"wX c #D68858",
"eX c #D68859",
"rX c #D78859",
"tX c #D68959",
"yX c #D78959",
"uX c #D5885A",
"iX c #D6895A",
"pX c #D7895A",
"aX c #D88959",
"sX c #D8895A",
"dX c #4BA282",
/* pixels */
"{.{.{.{.{.{.{.{.{.{.{.{.{.{.{.{.{.{.{.{.{.{.{.{.{.{.{.{.{.{.{.{.",
"{.{.{.{.{.{.{.{.{.{.{.X O u u u u u u o 2 {.{.{.{.{.{.{.{.{.{.{.",
"{.{.{.{.{.{.{.{.{.{.{.` #.h.h.h.h.h.h.O.O.{.{.{.{.{.{.{.{.{.{.{.",
"{.{.{.{.{.{.{.1.1 4.!.9X9X6X6X6X6X6X6X9X6Xv.2.1 i.{.{.{.{.{.{.{.",
"{.{.{.{.{.{.|., - >.*XwX_.z.x.x.x.x.z.$XsXoX] - [ .X{.{.{.{.{.{.",
"{.{.{.{.{.z ; wXwX6X6X$X7.q u u u q q s.&X6X6XwX9X@ 3.{.{.{.{.{.",
"{.{.{.{.Z.A.XXwX_.9.7.7.Z q u u q q u Z 5.7.s.`.sXS.T.}.{.{.{.dX",
"{.{.{.E # wXwX`.7.q 9 u J Q Z Z Q Q Z Z J u q s.$XwX2X+ u.{.{.{.",
"{. Xs.$X2XwXE.R a u q J k.G.J J G.y.Z ( G.0.Z q R _.wX2X$XC.M.{.",
"{.p.  ;X6XE.7.q I :.J J G.L.Q Q L.G.Z -.U.t.Z Z ( j.E.6X=X* . dX",
"{.N.& ;X_.Z q Z t.U.( Z k.L.Q Q L.k.Z ( P.t.Z 0.U.-.Z _.;Xs.u [.",
"{.N.& ;X!.a 9 Z y.U.-.Z k.L.Q Q L.k.Z ( P.t.Z t.U.( Z _.;Xs.u [.",
"{.N.& ;X_.Z q Z t.P.( Z k.L.Q Q L.k.Z ( P.t.Z 0.U.-.Z _.;Xs.u {.",
"{.N.& ;X_.Z q Z t.P.( Z k.L.Q Q L.k.Z ( P.t.Z 0.U.-.Z _.;Xs.u {.",
"{.N.& ;X_.Z q Z t.P.( Z k.L.Q Q G.k.Z ( P.t.Z 0.U.-.Z _.;Xs.u {.",
"{.N.& ;X_.Z q Z t.P.( Z k.L.Q Q G.k.Z ( P.t.Z 0.U.-.Z _.;Xs.u {.",
"{.N.& ;X_.Z q Z t.P.( Z k.L.Q Q L.k.Z ( P.t.Z 0.U.-.Z _.;Xs.u {.",
"{.N.& ;X_.Z q Z t.P.( Z k.L.Q Q L.k.Z ( P.t.Z 0.U.-.Z _.;Xs.u {.",
"{.N.& ;X_.Z q Z t.P.( Z k.L.Q Q L.k.Z ( P.t.Z 0.U.-.Z _.;Xs.u dX",
"{.B.& ;X_.Z q Z t.P.( Z k.L.Q Q L.k.Z ( P.t.Z 0.U.-.Z _.;Xs.u {.",
"{.B.& ;X_.Z q Z t.P.( Z k.L.Q Q L.k.Z ( P.0.Z 0.U.-.Z _.;Xs.u {.",
"{.m.: ;X_.Z q Z t.P.( Z k.L.Q Q L.k.Z ( P.0.Z 0.U.-.Z _.;Xs.u dX",
"{.j #.;X!.Z q Z t.P.( Z k.L.Q Q L.k.Z ( P.t.Z 0.U.-.Z _.;Xs.u [.",
"{.b._ ;X!.Z q Z t.P.( Z k.L.Q Q L.k.Z ( P.t.a 0.U.-.Z _.;Xs.u [.",
"{.n.: ;X_.Z q Z t.P.( Z k.L.Q Q L.k.Z ( P.t.Z 0.U.-.Z _.;Xs.u {.",
"{.k ' ;X_.Z q Z t.P.( Z k.L.Q Q L.k.Z ( P.t.Z 0.U.( Z _.;Xs.u dX",
"{.j #.;X_.Z q Z t.U.( Z G.L.Q Q L.G.Z ( U.t.Z 0.U.-.Z _.;Xs.u {.",
"{.j #.;X_.Z q Z t.U.( Z G.L.Q Q L.G.Z ( U.t.Z 0.U.-.Z _.;Xs.u {.",
"{.f <.9X_.Z 4 6 | X.K 8  ...b b .. .8 K X.| 6 { X.P R $X6Xs.q {.",
"{.d ,.;XE.Z ].].].].].].].].].].].].].].].].].].].].R _.&X9.u {.",
"{.g L s.( Z {.].].].].].].].].].].].].].].].].].].{.c :.s.R a {.",
"{.l 5 u 6 c {.{.{.{.{.].].].].].].].].].].{.{.{.{.{.c 4 u a Z {."
};
