/* XPM */
static char *_54f5f04a9e94c9bd007ae797175f96cKMp0C8TEZDVH0SWY[] = {
/* columns rows colors chars-per-pixel */
"32 32 36 1 ",
"  c #4FAF7B",
". c #74C857",
"X c #F57084",
"o c #F79666",
"O c white",
"+ c #4DB75C",
"@ c #1E3C09",
"# c #609F36",
"$ c #487E23",
"% c black",
"& c #4BA282",
"* c #AE8021",
"= c #FCC552",
"- c #FFE8B9",
"; c #DBA637",
": c #325D14",
"> c #937C65",
", c #392B1C",
"< c #5D4934",
"1 c #DECBB7",
"2 c #846B52",
"3 c #F1E6D6",
"4 c #F5DE53",
"5 c #B7A089",
"6 c #57AC79",
"7 c #60B472",
"8 c #4AA681",
"9 c #77CB51",
"0 c #4FB07A",
"q c #D25F27",
"w c #AB4818",
"e c #6EC45F",
"r c #4EAE7C",
"t c #51B07A",
"y c #73C759",
"u c #4DAE7C",
/* pixels */
" ..  .        .. .        .  .. ",
"...... .   . .......   .. ......",
"................................",
"................................",
"................................",
"........X...........XX..........",
".......XoX....OOOOOOOoX.........",
".......+X+...O@@@@@@@O+.........",
"........+...O@#######@O.........",
"...........O@#$$$$$$$#@O........",
"...........O@$$$$$$$$$@O........",
"...........O@$%O$$$$$$@O........",
"&..........O@$%%$$$*****O......&",
"...........O@$##$$*===--*O......",
"...........O@$$$$$*;;;;;;*O.....",
"...........O@:$$$$:******O......",
"........OOO.O@:$$$$::@OOO.......",
".......O>>>O.O@OOOOO@O..........",
"......O>OOO>OO,<<<<<,O..........",
".....O>O111O>>22222<,O......33..",
".....O>11>>111OO2222<,O....3443.",
".....O>1>1111111O2222,O....+33+.",
".....O>1,211111112222,O.....++..",
"..3..O>5,22111112222<,O.........",
".343.O>55,2222222,<<<,O.........",
".+3+..O>55,,,,,,,<<<,O..........",
"..+...6O>5555555<<<,O6..........",
"......78O>>>>>>,,,,O87..........",
"......90 OqqqqOOwwwO09..........",
"......e   OOOO rOOO  e..........",
"......      tt t      ..........",
"......yu u uyyuyuu  uy.........."
};
