/* XPM */
static char *ce807a87290b487a86e1cd800eec4832xSuMOwdAK0YUHLnj[] = {
/* columns rows colors chars-per-pixel */
"32 32 38 1 ",
"  c #4FAF7B",
". c #74C857",
"X c #F57084",
"o c white",
"O c #F79666",
"+ c #1E3C09",
"@ c #4DB75C",
"# c #609F36",
"$ c #487E23",
"% c black",
"& c #AE8021",
"* c #4BA282",
"= c #FCC552",
"- c #FFE8B9",
"; c #DBA637",
": c #325D14",
"> c #937C65",
", c #392B1C",
"< c #5D4934",
"1 c #DECBB7",
"2 c #846B52",
"3 c #F1E6D6",
"4 c #F5DE53",
"5 c #B7A089",
"6 c #76CA53",
"7 c #57AC79",
"8 c #5BAE77",
"9 c #60B472",
"0 c #4AA681",
"q c #D25F27",
"w c #AB4818",
"e c #77CB51",
"r c #4FB07A",
"t c #6EC45F",
"y c #4EAE7C",
"u c #51B07A",
"i c #73C759",
"p c #4DAE7C",
/* pixels */
" ..  .        .. .        .  .. ",
"...... .   . .......   .. ......",
"................................",
"................................",
"................................",
"........X.....oooooooX..........",
".......XOX...o+++++++oX.........",
".......@X@..o+#######+o.........",
"........@..o+#$$$$$$$#+o........",
"...........o+$$$$$$$$$+o........",
"...........o+$%o$$$$$$+o........",
"...........o+$%%$$$&&&&&o.......",
"*..........o+$##$$&===--&o.....*",
"...........o+$$$$$&;;;;;;&o.....",
"...........o+:$$$$:&&&&&&o......",
"........ooo.o+:$$$$::+ooo.......",
".......o>>>o.o+ooooo+o..........",
"......o>ooo>oo,<<<<<,o..........",
".....o>o111o>>22222<,o..........",
".....o>11>>111oo2222<,o.....33..",
".....o>1>1111111o2222,o....3443.",
".....o>1,211111112222,o....@33@.",
".....o>5,22111112222<,o.....@@..",
"..3..o>55,2222222,<<<,o.........",
".343..o>55,,,,,,,<<<,o..........",
".@3@..6o>5555555<<<,o6..........",
"..@...78o>>>>>>,,,,o87..........",
"......90 oqqqooowwo 09..........",
"......er oqqqqoowwwore..........",
"......t   oooo yooo  t..........",
"......      uu u      ..........",
"......ip p piipipp  pi.........."
};
