/* XPM */
static char *_89d6e6c822647f5984563bbddd7fcb0DjYw9OszrqQwFan3[] = {
/* columns rows colors chars-per-pixel */
"32 32 19 1 ",
"  c white",
". c #1E3C09",
"X c #609F36",
"o c #487E23",
"O c black",
"+ c #AE8021",
"@ c #FCC552",
"# c #FFE8B9",
"$ c #DBA637",
"% c #325D14",
"& c #937C65",
"* c #392B1C",
"= c #5D4934",
"- c #DECBB7",
"; c #846B52",
": c #B7A089",
"> c #D25F27",
", c #AB4818",
"< c None",
/* pixels */
"<<<<<<<<<<<<<<<<<<<<<<<<<<<<<<<<",
"<<<<<<<<<<<<<<<<<<<<<<<<<<<<<<<<",
"<<<<<<<<<<<<<<<<<<<<<<<<<<<<<<<<",
"<<<<<<<<<<<<<<<<<<<<<<<<<<<<<<<<",
"<<<<<<<<<<<<<<<<<<<<<<<<<<<<<<<<",
"<<<<<<<<<<<<<<       <<<<<<<<<<<",
"<<<<<<<<<<<<< ....... <<<<<<<<<<",
"<<<<<<<<<<<< .XXXXXXX. <<<<<<<<<",
"<<<<<<<<<<< .XoooooooX. <<<<<<<<",
"<<<<<<<<<<< .ooooooooo. <<<<<<<<",
"<<<<<<<<<<< .oO oooooo. <<<<<<<<",
"<<<<<<<<<<< .oOOooo+++++ <<<<<<<",
"<<<<<<<<<<< .oXXoo+@@@##+ <<<<<<",
"<<<<<<<<<<< .ooooo+$$$$$$+ <<<<<",
"<<<<<<<<<<< .%oooo%++++++ <<<<<<",
"<<<<<<<<   < .%oooo%%.   <<<<<<<",
"<<<<<<< &&& < .     . <<<<<<<<<<",
"<<<<<< &   &  *=====* <<<<<<<<<<",
"<<<<< & --- &&;;;;;=* <<<<<<<<<<",
"<<<<< &--&&---  ;;;;=* <<<<<<<<<",
"<<<<< &-&------- ;;;;* <<<<<<<<<",
"<<<<< &-*;-------;;;;* <<<<<<<<<",
"<<<<< &:*;;-----;;;;=* <<<<<<<<<",
"<<<<< &::*;;;;;;;*===* <<<<<<<<<",
"<<<<<< &::*******===* <<<<<<<<<<",
"<<<<<<< &:::::::===* <<<<<<<<<<<",
"<<<<<<<< &&&&&&**** <<<<<<<<<<<<",
"<<<<<<<<< >>>   ,, <<<<<<<<<<<<<",
"<<<<<<<<< >>>>  ,,, <<<<<<<<<<<<",
"<<<<<<<<<<    <<   <<<<<<<<<<<<<",
"<<<<<<<<<<<<<<<<<<<<<<<<<<<<<<<<",
"<<<<<<<<<<<<<<<<<<<<<<<<<<<<<<<<"
};
