/* XPM */
static char *_c73e78f16d44c0588fc6c3d7d76c219MnjMUrCAXSRS6L7t[] = {
/* columns rows colors chars-per-pixel */
"32 32 79 1 ",
"  c None",
". c #981B23",
"X c #952429",
"o c #922E31",
"O c #883135",
"+ c #953033",
"@ c #933335",
"# c #953134",
"$ c #953335",
"% c #B12D31",
"& c #B22E32",
"* c #AC373D",
"= c #B43034",
"- c #B43134",
"; c #B73235",
": c #B83235",
"> c #B3383E",
", c #C1373F",
"< c #C2393D",
"1 c #87403F",
"2 c #C73740",
"3 c #C73D40",
"4 c #A25659",
"5 c #A45A5C",
"6 c #C2474D",
"7 c #CF454A",
"8 c #C34B4E",
"9 c #CF484B",
"0 c #C8484D",
"q c #C9494E",
"w c #D0464A",
"e c #D34B4E",
"r c #D94D50",
"t c #DB4F52",
"y c #D85759",
"u c #DA5C5F",
"i c #F1555A",
"p c #F2555A",
"a c #DA5D60",
"s c #F25E61",
"d c #F35E62",
"f c #DF6264",
"g c #E2686A",
"h c #F0676A",
"j c #F0696C",
"k c #F06A6D",
"l c #F16D70",
"z c #DA999A",
"x c #F49295",
"c c #F49496",
"v c #F49497",
"b c #F39799",
"n c #F4999B",
"m c #F49B9D",
"M c #F49D9F",
"N c #F3A09C",
"B c #DAA3A6",
"V c #DBB5B1",
"C c #DEB9B5",
"Z c #F4A3A3",
"A c #F3A5A1",
"S c #F4A4A3",
"D c #FAA5A2",
"F c #F5A7AA",
"G c #F5A9AC",
"H c #F5AAAD",
"J c #F5ACAE",
"K c #F5ACAF",
"L c #F5ADAF",
"P c #FAABA8",
"I c #F6B2B2",
"U c #F7C0C2",
"Y c #FAD6D0",
"T c #FDD8D3",
"R c #FEDFDB",
"E c #FEE0DC",
"W c #FCEAE8",
"Q c #FCEBE8",
"! c #FFF4F4",
/* pixels */
"                                ",
"                                ",
"                                ",
"                                ",
"                                ",
"                                ",
"                                ",
"                                ",
"                                ",
"                                ",
"                5               ",
"               2PV              ",
"              0pAEB             ",
"             >dkSW!B            ",
"            .3lmHUWRz           ",
"           0tgMLHFIYTC          ",
"          Ow9avLHHHZND4         ",
"           o%:yxLLbhp,          ",
"            +-:yvnkd6           ",
"             $--uf<*            ",
"              $%etX             ",
"               @78              ",
"                1               ",
"                                ",
"                                ",
"                                ",
"                                ",
"                                ",
"                                ",
"                                ",
"                                ",
"                                "
};
