/* XPM */
static char *_bfa217db8584b3fa1616983cb095fc09rY7dJk0y6kWhx8t[] = {
/* columns rows colors chars-per-pixel */
"32 32 82 1 ",
"  c #74C857",
". c #4FAF7B",
"X c #4BA282",
"o c #498F7B",
"O c #A45A5C",
"+ c #C73740",
"@ c #FAABA8",
"# c #DBB5B1",
"$ c #C8484D",
"% c #F2555A",
"& c #F3A5A1",
"* c #FEE0DC",
"= c #DAA3A6",
"- c #B3383E",
"; c #F35E62",
": c #F06A6D",
"> c #F4A4A3",
", c #FCEBE8",
"< c #FFF4F4",
"1 c #981B23",
"2 c #C73D40",
"3 c #F16D70",
"4 c #F49B9D",
"5 c #F5A9AC",
"6 c #F7C0C2",
"7 c #FCEAE8",
"8 c #FEDFDB",
"9 c #DA999A",
"0 c #C9494E",
"q c #DB4F52",
"w c #E2686A",
"e c #F49D9F",
"r c #F5ADAF",
"t c #F5AAAD",
"y c #F5A7AA",
"u c #F6B2B2",
"i c #FAD6D0",
"p c #FDD8D3",
"a c #DEB9B5",
"s c #883135",
"d c #D0464A",
"f c #CF484B",
"g c #DA5D60",
"h c #F49497",
"j c #F5ACAF",
"k c #F4A3A3",
"l c #F3A09C",
"z c #FAA5A2",
"x c #A25659",
"c c #922E31",
"v c #B22E32",
"b c #B83235",
"n c #D85759",
"m c #F49295",
"M c #F5ACAE",
"N c #F39799",
"B c #F0676A",
"V c #F1555A",
"C c #C1373F",
"Z c #953033",
"A c #B43134",
"S c #F49496",
"D c #F4999B",
"F c #F0696C",
"G c #F25E61",
"H c #C2474D",
"J c #953134",
"K c #B43034",
"L c #B73235",
"P c #DA5C5F",
"I c #DF6264",
"U c #C2393D",
"Y c #AC373D",
"T c #953335",
"R c #B12D31",
"E c #D34B4E",
"W c #D94D50",
"Q c #952429",
"! c #933335",
"~ c #CF454A",
"^ c #C34B4E",
"/ c #87403F",
/* pixels */
"       . ... .       ...  .     ",
"                                ",
"                                ",
"                                ",
"                                ",
"                                ",
"                                ",
"X                               ",
"                                ",
"          o                     ",
"X      o  o  o  O               ",
".X      o o o  +@#              ",
".             $%&*=             ",
"             -;:>,<=            ",
"            123456789           ",
"           0qwertyuipa          ",
"          sdfghjtttklzx         ",
"           cvbnmjMNBVC          ",
"            ZAbnSDFGH           ",
"X            JKLPIUY            ",
"              TREWQ             ",
"               !~^      o  o    ",
"X               /        o o    ",
".X                       o o    ",
".                               ",
"      o                         ",
"X   o o o                       ",
"    o o o                       ",
"                                ",
"                                ",
"                                ",
"                                "
};
