/* XPM */
static char *_f45105960544cdfecca6b7da9c0dddaBGV8EqjZ3GE0FchS[] = {
/* columns rows colors chars-per-pixel */
"32 32 91 1 ",
"  c #4EAF7B",
". c #52B179",
"X c #5FB96F",
"o c #77CB51",
"O c #63BC6B",
"+ c #4FAF7B",
"@ c #6FC45D",
"# c #53B278",
"$ c #4EAE7C",
"% c #4DAE7C",
"& c #50B07A",
"* c #6FC45E",
"= c #74C857",
"- c #59B574",
"; c #51B079",
": c #51B07A",
"> c #53B178",
", c #52B079",
"< c #5BB673",
"1 c #75C955",
"2 c #74C856",
"3 c #75C856",
"4 c #5CB772",
"5 c #72C65A",
"6 c #57B476",
"7 c #55B376",
"8 c #67BF67",
"9 c #65BD69",
"0 c #6BC162",
"q c #76C954",
"w c #69C065",
"e c #55B377",
"r c #56B376",
"t c #70C55D",
"y c #5BB672",
"u c #75C956",
"i c #76CA54",
"p c #61B570",
"a c #4DAB7D",
"s c #50A67F",
"d c #75C954",
"f c #F5DE53",
"g c #59AE78",
"h c #53B179",
"j c #F79666",
"k c #70C35E",
"l c #4EAD7C",
"z c #4FA87E",
"x c #6DC062",
"c c #4DB75C",
"v c #65B96C",
"b c #6AC064",
"n c #76CA53",
"m c #F1E6D6",
"M c #6DC162",
"N c #6EC161",
"B c #4AA481",
"V c #5EB373",
"C c #5EB273",
"Z c #54B377",
"A c #78CC4F",
"S c #50AF7B",
"D c #64B86D",
"F c #76CA52",
"G c #4CA87F",
"H c #62B66F",
"J c #54B277",
"K c #52B07A",
"L c #61BA6D",
"P c #71C55C",
"I c #54A97C",
"U c #52A87D",
"Y c #66BA6B",
"T c #6ABE65",
"R c #68BC68",
"E c #6FC35E",
"W c #59AD78",
"Q c #58AD78",
"! c #51AE7B",
"~ c #5DB175",
"^ c #78CC50",
"/ c #62B670",
"( c #4BA282",
") c #6FC35F",
"_ c #4DAD7D",
"` c #4DAC7D",
"' c #50AF7A",
"] c #4CA680",
"[ c #6EC260",
"{ c #51AF7A",
"} c #78CB51",
/* pixels */
" .XoO+@#.$%&&+*=-*;:%%.>#@+OoX, ",
"<12=23345678901=3=qwert2y332=21<",
"1======1=1q3u2=====3qq2=1======1",
"i==============================i",
"p2============================2p",
"au============================3a",
"tu============================3t",
"s+d=================ff=======dgs",
"h+=+============+==fjjf=======2h",
".+1+=============+=fjjf======1k.",
"lzxu===============cffc=====uxzl",
" $v1===jj===========cc======1vl ",
":bn====jfjj==================nb:",
";q====jfmfj===================q;",
"*=====jjfjc====================*",
"-3====ccjj============mm======3-",
"=u==+==+cc+===========mfmm====u=",
"MN2==+=+=+===========mfjfm===2NM",
"BV1==================mmfmc===1CB",
"ZA===================ccmm=====AZ",
"SDF====================cc====FDS",
"$GHd========================dHG$",
"$Jk2========================2kJ$",
".5u=====================+====u5.",
"Kgd===========jj=====+==+==+=dgK",
"q2===========jffj=====+=+=+===2q",
"b========+==+cjjc==============b",
"L2========+=+=cc==============2L",
"q=========+=+==================q",
"1======d=ii112=====uii2=d======d",
"<12=21ugPIUYDT1=3=nRUUE2Wu12=21Q",
" !~^/()h._`'&][=-*;{``.>h)(/}X,l"
};
