/* XPM */
static char *f2440bd1bc0440f795ed1cffc56b51b2nWutUVoWxVVs4k6f[] = {
/* columns rows colors chars-per-pixel */
"32 32 87 1 ",
"  c #4EAF7B",
". c #52B179",
"X c #5FB96F",
"o c #77CB51",
"O c #63BC6B",
"+ c #4FAF7B",
"@ c #6FC45D",
"# c #53B278",
"$ c #4EAE7C",
"% c #4DAE7C",
"& c #50B07A",
"* c #6FC45E",
"= c #74C857",
"- c #59B574",
"; c #51B079",
": c #51B07A",
"> c #53B178",
", c #52B079",
"< c #5BB673",
"1 c #75C955",
"2 c #74C856",
"3 c #75C856",
"4 c #5CB772",
"5 c #72C65A",
"6 c #57B476",
"7 c #55B376",
"8 c #67BF67",
"9 c #65BD69",
"0 c #6BC162",
"q c #76C954",
"w c #69C065",
"e c #55B377",
"r c #56B376",
"t c #70C55D",
"y c #5BB672",
"u c #75C956",
"i c #76CA54",
"p c #61B570",
"a c #4DAB7D",
"s c #50A67F",
"d c #75C954",
"f c #59AE78",
"g c #53B179",
"h c #70C35E",
"j c #4EAD7C",
"k c #4FA87E",
"l c #6DC062",
"z c #65B96C",
"x c #6AC064",
"c c #76CA53",
"v c #6DC162",
"b c #6EC161",
"n c #4AA481",
"m c #5EB373",
"M c #5EB273",
"N c #54B377",
"B c #78CC4F",
"V c #50AF7B",
"C c #64B86D",
"Z c #76CA52",
"A c #4CA87F",
"S c #62B66F",
"D c #54B277",
"F c #52B07A",
"G c #61BA6D",
"H c #71C55C",
"J c #54A97C",
"K c #52A87D",
"L c #66BA6B",
"P c #6ABE65",
"I c #68BC68",
"U c #6FC35E",
"Y c #59AD78",
"T c #58AD78",
"R c #51AE7B",
"E c #5DB175",
"W c #78CC50",
"Q c #62B670",
"! c #4BA282",
"~ c #6FC35F",
"^ c #4DAD7D",
"/ c #4DAC7D",
"( c #50AF7A",
") c #4CA680",
"_ c #6EC260",
"` c #51AF7A",
"' c #78CB51",
/* pixels */
" .XoO+@#.$%&&+*=-*;:%%.>#@+OoX, ",
"<12=23345678901=3=qwert2y332=21<",
"1======1=1q3u2=====3qq2=1======1",
"i==============================i",
"p2============================2p",
"au============================3a",
"tu============================3t",
"s+d=================+========dfs",
"g+=+============+==++=========2g",
".+1+=============+=+=========1h.",
"jklu========================ulkj",
" $z1========================1zj ",
":xc==========================cx:",
";q============================q;",
"*==============================*",
"-3=====+======================3-",
"=u==+==+==+===================u=",
"vb2==+=+=+===================2bv",
"nm1==========================1Mn",
"NB============================BN",
"VCZ==========================ZCV",
"$ASd========================dSA$",
"$Dh2========================2hD$",
".5u=====================+====u5.",
"Ffd==================+==+==+=dfF",
"q2====================+=+=+===2q",
"x========+==+==================x",
"G2========+=+=================2G",
"q=========+=+==================q",
"1======d=ii112=====uii2=d======d",
"<12=21ufHJKLCP1=3=cIKKU2Yu12=21T",
" REWQ!~g.^/(&)_=-*;`//.>g~!Q'X,j"
};
