/* XPM */
static char *_69dbc7a38a545dbb2f56fd6c813fcb3tOOAXmyd5AGUfFeq[] = {
/* columns rows colors chars-per-pixel */
"32 32 58 1 ",
"  c #6A645C",
". c #6A655C",
"X c #53321E",
"o c #69645B",
"O c #69635B",
"+ c #68635A",
"@ c #68625A",
"# c #676259",
"$ c #676159",
"% c #4F2913",
"& c #5C5247",
"* c #4F311E",
"= c #5A5046",
"- c #4F3625",
"; c #584132",
": c #615851",
"> c #543624",
", c #5F5349",
"< c #563D2C",
"1 c #563B2A",
"2 c #553726",
"3 c #553827",
"4 c #594133",
"5 c #5A4336",
"6 c #5A4335",
"7 c #5A4436",
"8 c #5A4437",
"9 c #5B4639",
"0 c #5E5146",
"q c #6C675F",
"w c #6D6860",
"e c #6F6B62",
"r c #706C63",
"t c #706B62",
"y c #6F6A62",
"u c #706B63",
"i c #6D6960",
"p c #6E6A61",
"a c #573F30",
"s c #5A4739",
"d c #5B483B",
"f c #5B493C",
"g c #5D4D42",
"h c #5B473A",
"j c #573C2D",
"k c #543523",
"l c #69645C",
"z c #6C685F",
"x c #6C675E",
"c c #5C4B40",
"v c #665F58",
"b c #5C4B3F",
"n c #5C493D",
"m c #5E4F45",
"M c #655C55",
"N c #655D56",
"B c #5E4F44",
"V c white",
/* pixels */
" .Xooooooooooooooo..............",
"ooXOOOOOOooooooooooo ooooooooooo",
"++X+++++++++++++OOOOOOOOOOOOOOOO",
"+@X@@@@@@@@@++@+++#######@#@@@++",
"$$X$$$$$$$$$$$$$$$$$$$$$$$$$$$$$",
"$$%$$$$$$$$$$$$$$$$$$$$$$$$$$$$$",
"%%&%%%%%%%%%%%%%%%%%%%%%%%%%%%%%",
"&&&&&&&&&*======================",
"&&&&&&&&&*======================",
"&&&&&&&&&-======================",
"&&&&&&&&&-======================",
"&&&&&&&&&-======================",
"&&&&&&&&&-======================",
"$$$$$$$$$;::::::::::::::::::::::",
"$$$$$$$$$>::::::::::::::::::::::",
",,,,,;;<123334456578889::::;0,,,",
"qqqqqqqqqqqqqqqqwerrrtt;::;yueqq",
"$$$$$$$$$$$$$$$$$$$$$$$i;;p$$$$$",
"$$$$$$$$$$$$$$$$$$$$$$$$;y$$$$$$",
"$$$$$$$$$$$$$$$$$$$$$$$$;$$$$$$$",
"$$$$$$$$$$$$$$$$$$$$$$$$;$$$$$$$",
"$$$$$$$$$$$$$$$$$$$$$$$$;$$$$$$$",
"$$$$$$$$$$$$$$$$$$$$$$$$;$$$$$$$",
"$$$$$$$$$$$$$$$$$$$$$$$$a$$$$$$$",
",,,,,,sdfgffh,,,,,dddjj>k2j,,,,,",
"llzzzzzqxcqqqqqqqqllllllllllllll",
"vvvvvvvvvbvvvvvvvvvvvvvvvvvvvvvv",
"vvvvvvvvvnvvvvvvvvvvvvvvvvvvvvvv",
"vvvvvvvvvmMvvvvvvvvvvvvvvvvvvvvv",
"vvvvvvvvvmNvvvvvvvvvvvvvvvvvvvvv",
"vvvvvvvvvBvvvvvvvvvvvvvvvvvvvvvv",
"vvvvvvvvvkvvvvvvvvvvvvvvvvvvvvvv"
};
