/* XPM */
static char *_cc2a30bc15a4a76dbb9774c5109fac7uar4IuWvfrbhEswd[] = {
/* columns rows colors chars-per-pixel */
"32 32 9 1 ",
"  c white",
". c #BB3F4A",
"X c #DD4A57",
"o c #202830",
"O c #568C36",
"+ c #A7EE7D",
"@ c #66A540",
"# c #49772E",
"$ c None",
/* pixels */
"$$$$$$$$$$$$$$$$$$$$$$$$$$$$$$$$",
"$$$$$$$$$$$$$$$$$$$$$$$$$$$$$$$$",
"$$$$$$$$$$$$$$$$$$$$$$$$$$$$$$$$",
"$$$$$$$$$$$$$$$$$$$$$$$$$$$$$$$$",
"$$$$$$$$$$$$$$$$$$$$$$$$$$$$$$$$",
"$$$$$$$$$$$$$$$$$$$$$$$$$$$$$$$$",
"$$$$$$$$$$$$$      $$$$$$$$$$$$$",
"$$$$$$$$$$$$ ...... $$$$$$$$$$$$",
"$$$$$$$$$$$ .XXXXXX. $$$$$$$$$$$",
"$$$$$$$$$$ .XXXXXXXX. $$$$$$$$$$",
"$$$$$$$$$ .XXXXXXXXXX. $$$$$$$$$",
"$$$$$$$$ .XXo XXXXXXo . $$$$$$$$",
"$$$$$$$$ .XXooXXXXXXoo. $$$$$$$$",
"$$$$$$$$ .XXXXXXXooXXX. $$$$$$$$",
"$$$$$$$ .XXXXXXXXXXXXXX.$$$$$$$$",
"$$$$$$$ .XoXXXXXXXXXXoX. $$$$$$$",
"$$$$$$$ .XXXXoXXXXoXXXX. $$$$$$$",
"$$$$$$ O++XXXXXXXXXXXX++O $$$$$$",
"$$$$$$ O@+++++XXXX+++++@O $$$$$$",
"$$$$$$ #O@@@@++++++@@@@O# $$$$$$",
"$$$$$$$ #OOO@@@@@@@@OOO# $$$$$$$",
"$$$$$$$$ ##OOOOOOOOOO## $$$$$$$$",
"$$$$$$$$$ ############ $$$$$$$$$",
"$$$$$$$$$$  ########  $$$$$$$$$$",
"$$$$$$$$$  $        $  $$$$$$$$$",
"$$$$$$$$ oo $$$$$$$$ oo $$$$$$$$",
"$$$$$$$$ oo $$$$$$$$ oo $$$$$$$$",
"$$$$$$$$$  $$$$$$$$$$  $$$$$$$$$",
"$$$$$$$$$$$$$$$$$$$$$$$$$$$$$$$$",
"$$$$$$$$$$$$$$$$$$$$$$$$$$$$$$$$",
"$$$$$$$$$$$$$$$$$$$$$$$$$$$$$$$$",
"$$$$$$$$$$$$$$$$$$$$$$$$$$$$$$$$"
};
