/* XPM */
static char *_744f853047647c7f87ebb2301fa85074rueK0tT55bESHk9[] = {
/* columns rows colors chars-per-pixel */
"32 32 64 1 ",
"  c #74C857",
". c #4FAF7B",
"X c white",
"o c #BB3F4A",
"O c #DD4A57",
"+ c #202830",
"@ c #76CA54",
"# c #77CB51",
"$ c #75C955",
"% c #6CC063",
"& c #6DC062",
"* c #72C659",
"= c #4FA57F",
"- c #72C65B",
"; c #74C856",
": c #73C758",
"> c #4EA480",
", c #4EAC7D",
"< c #6BBF65",
"1 c #76CA53",
"2 c #568C36",
"3 c #A7EE7D",
"4 c #66A540",
"5 c #49772E",
"6 c #75C954",
"7 c #5DB174",
"8 c #65B86C",
"9 c #54B079",
"0 c #75C956",
"q c #79CD4E",
"w c #5EB970",
"e c #4CAD7D",
"r c #72C65A",
"t c #74C758",
"y c #5CB772",
"u c #4CAD7C",
"i c #52A77E",
"p c #4DA281",
"a c #6DC063",
"s c #53AE7A",
"d c #79CC4E",
"f c #59B673",
"g c #4DAE7C",
"h c #6DC360",
"j c #55B377",
"k c #4EAE7C",
"l c #75C856",
"z c #55B277",
"x c #52B179",
"c c #56B376",
"v c #71C65B",
"b c #70C55C",
"n c #57B475",
"m c #4BAD7D",
"M c #4EAE7B",
"N c #70C55D",
"B c #54B277",
"V c #60B96E",
"C c #70C45D",
"Z c #6CC262",
"A c #6EC35F",
"S c #5BB672",
"D c #46AA80",
"F c #57B476",
/* pixels */
"                                ",
"                                ",
"                                ",
"                                ",
"            .           .       ",
"          . . .      .  .  .    ",
"          . .XXXXXX   . . .     ",
"            XooooooX            ",
"           XoOOOOOOoX           ",
"          XoOOOOOOOOoX          ",
"         XoOOOOOOOOOOoX         ",
"        XoOO+XOOOOOO+XoX        ",
"      @#XoOO++OOOOOO++oX        ",
"     $%&XoOOOOOOO++OOOoX$       ",
"     *=XoOOOOOOOOOOOOOOo-  .  . ",
"   ;:>,XoO+OOOOOOOOOO+OoX:;.. . ",
"     <.XoOOOO+OOOO+OOOOoX   . . ",
"     1X233OOOOOOOOOOOO332X      ",
"      X2433333OOOO3333342X      ",
".  .  X524444333333444425X      ",
" . .   X5222444444442225X       ",
" . .  67X55222222222255X        ",
"      $89X555555555555X$        ",
"      0qweXX55555555XXq0        ",
"      rtyXX.XXXXXXXXuXXr        ",
"     0ipX++X........X++X0       ",
"      asX++X........X++X        ",
"      dfgXX..........XXd        ",
"      hjk....gg.g....kjh        ",
"     lzk.....xx.x.....kzl       ",
"       cgkkgc vgbnmM.uc         ",
"      $NBVVBC$lZ;AhSDFN$        "
};
