/* XPM */
static char *_dfd8211eb954bdefb3c533b2fb6e9d4KpTJnvnLDyfRvJTL[] = {
/* columns rows colors chars-per-pixel */
"32 32 63 1 ",
"  c #74C857",
". c #4FAF7B",
"X c white",
"o c #BB3F4A",
"O c #DD4A57",
"+ c #76CA54",
"@ c #77CB51",
"# c #202830",
"$ c #75C955",
"% c #6CC063",
"& c #6DC062",
"* c #72C659",
"= c #4FA57F",
"- c #74C856",
"; c #73C758",
": c #4EA480",
"> c #4EAC7D",
", c #6BBF65",
"< c #76CA53",
"1 c #568C36",
"2 c #A7EE7D",
"3 c #66A540",
"4 c #49772E",
"5 c #75C954",
"6 c #5DB174",
"7 c #65B86C",
"8 c #54B079",
"9 c #75C956",
"0 c #79CD4E",
"q c #5EB970",
"w c #4CAD7D",
"e c #72C65A",
"r c #74C758",
"t c #5CB772",
"y c #4CAD7C",
"u c #52A77E",
"i c #4DA281",
"p c #6DC063",
"a c #53AE7A",
"s c #79CC4E",
"d c #59B673",
"f c #4DAE7C",
"g c #6DC360",
"h c #55B377",
"j c #4EAE7C",
"k c #75C856",
"l c #55B277",
"z c #52B179",
"x c #56B376",
"c c #71C65B",
"v c #70C55C",
"b c #57B475",
"n c #4BAD7D",
"m c #4EAE7B",
"M c #70C55D",
"N c #54B277",
"B c #60B96E",
"V c #70C45D",
"C c #6CC262",
"Z c #6EC35F",
"A c #5BB672",
"S c #46AA80",
"D c #57B476",
/* pixels */
"                                ",
"                                ",
"                                ",
"                                ",
"            .           .       ",
"          . .XXXXXX  .  .  .    ",
"          . XooooooX  . . .     ",
"           XoOOOOOOoX           ",
"          XoOOOOOOOOoX          ",
"         XoOOOOOOOOOOoX         ",
"         XoOOOOOOOOOOoX         ",
"        XoOOOOOOOOOOOOoX        ",
"      +@XoOO#XOOOOOO#XoX        ",
"     $%&XoOO##OOOOOO##oX$       ",
"     *=XoOOOOOOOO##OOOOoX  .  . ",
"   -;:>XoOOOOOOOOOOOOOOoX;-.. . ",
"     ,.XoO#OOOOOOOOOO#OoX   . . ",
"     <X12OOOO#OOOO#OOOO21X      ",
"      X132OOOOOOOOOOOO231X      ",
".  .  X413222222222222314X      ",
" . .   X4133322222233314X       ",
" . .  56X41133333333114X        ",
"      $78X441111111144X$        ",
"      90qwXX44444444XX09        ",
"      ertXX.XXXXXXXXyXXe        ",
"     9uiX##X........X##X9       ",
"      paX##X........X##X        ",
"      sdfXX..........XXs        ",
"      ghj....ff.f....jhg        ",
"     klj.....zz.z.....jlk       ",
"       xfjjfx cfvbnm.yx         ",
"      $MNBBNV$kC-ZgASDM$        "
};
